<mxfile host="65bd71144e">
    <diagram id="v1e7NxSWRQVJLnWdrrE5" name="Page-1">
        <mxGraphModel dx="924" dy="432" grid="1" gridSize="10" guides="1" tooltips="1" connect="1" arrows="1" fold="1" page="0" pageScale="1" pageWidth="850" pageHeight="1100" math="0" shadow="0">
            <root>
                <mxCell id="0"/>
                <mxCell id="1" parent="0"/>
                <mxCell id="5" value="" style="rounded=0;whiteSpace=wrap;html=1;fillColor=#60a917;gradientDirection=north;fontColor=#ffffff;strokeColor=#2D7600;" vertex="1" parent="1">
                    <mxGeometry x="100" y="110" width="130" height="140" as="geometry"/>
                </mxCell>
                <mxCell id="2" value="App" style="rounded=0;whiteSpace=wrap;html=1;align=left;" vertex="1" parent="1">
                    <mxGeometry x="40" y="20" width="590" height="310" as="geometry"/>
                </mxCell>
                <mxCell id="3" value="&lt;b&gt;What's for Dinner?&lt;/b&gt;" style="rounded=0;whiteSpace=wrap;html=1;fillColor=#6a00ff;fontColor=#ffffff;strokeColor=#3700CC;" vertex="1" parent="1">
                    <mxGeometry x="275" y="40" width="120" height="30" as="geometry"/>
                </mxCell>
                <mxCell id="14" value="" style="group;fillColor=none;gradientColor=default;" vertex="1" connectable="0" parent="1">
                    <mxGeometry x="280" y="110" width="120" height="170" as="geometry"/>
                </mxCell>
                <mxCell id="4" value="" style="rounded=0;whiteSpace=wrap;html=1;fillColor=#60a917;fontColor=#ffffff;strokeColor=#2D7600;" vertex="1" parent="14">
                    <mxGeometry width="120" height="170" as="geometry"/>
                </mxCell>
                <mxCell id="11" value="&lt;ul&gt;&lt;li&gt;mac &amp;amp; cheese&lt;/li&gt;&lt;li&gt;soup&lt;/li&gt;&lt;li&gt;pizza&lt;/li&gt;&lt;/ul&gt;" style="text;html=1;whiteSpace=wrap;verticalAlign=middle;overflow=hidden;fillColor=#647687;fontColor=#ffffff;strokeColor=#314354;" vertex="1" parent="14">
                    <mxGeometry y="60.71428571428571" width="120" height="97.14285714285714" as="geometry"/>
                </mxCell>
                <mxCell id="7" value="&lt;b&gt;Recipe Highlight&lt;/b&gt;" style="rounded=0;whiteSpace=wrap;html=1;fillColor=#6a00ff;fontColor=#ffffff;strokeColor=#3700CC;" vertex="1" parent="14">
                    <mxGeometry x="10" y="12.14" width="100" height="27.86" as="geometry"/>
                </mxCell>
                <mxCell id="20" value="" style="group;fillColor=#60a917;fontColor=#ffffff;strokeColor=#2D7600;container=0;" vertex="1" connectable="0" parent="1">
                    <mxGeometry x="100" y="110" width="130" height="170" as="geometry"/>
                </mxCell>
                <mxCell id="15" value="" style="rounded=0;whiteSpace=wrap;html=1;fillColor=#60a917;gradientDirection=east;fontColor=#ffffff;strokeColor=#2D7600;container=1;" vertex="1" parent="1">
                    <mxGeometry x="450" y="110" width="120" height="170.07" as="geometry"/>
                </mxCell>
                <mxCell id="16" value="&lt;b&gt;Recipe Box&lt;/b&gt;" style="rounded=0;whiteSpace=wrap;html=1;fillColor=#6a00ff;fontColor=#ffffff;strokeColor=#3700CC;" vertex="1" parent="15">
                    <mxGeometry x="10" y="12.14" width="100" height="27.86" as="geometry"/>
                </mxCell>
                <mxCell id="41" value="Add" style="rounded=1;fillColor=#0057D8;strokeColor=none;html=1;fontColor=#ffffff;align=center;verticalAlign=middle;fontStyle=0;fontSize=12;sketch=0;container=1;" vertex="1" parent="15">
                    <mxGeometry x="16.836666666666645" y="130" width="93.16666666666666" height="33" as="geometry"/>
                </mxCell>
                <mxCell id="6" value="&lt;b&gt;Recipe Search&lt;/b&gt;" style="rounded=0;whiteSpace=wrap;html=1;fillColor=#6a00ff;fontColor=#ffffff;strokeColor=#3700CC;" vertex="1" parent="1">
                    <mxGeometry x="110.83333333333333" y="120" width="108.33333333333333" height="30" as="geometry"/>
                </mxCell>
                <mxCell id="23" value="" style="rounded=1;arcSize=9;align=left;spacingLeft=5;strokeColor=#B09500;html=1;strokeWidth=2;fontSize=12;fillColor=#e3c800;gradientDirection=north;fontColor=#000000;" vertex="1" parent="1">
                    <mxGeometry x="124.91666666666667" y="180" width="86.66666666666666" height="15" as="geometry"/>
                </mxCell>
                <mxCell id="21" value="Search" style="rounded=1;fillColor=#0057D8;strokeColor=none;html=1;fontColor=#ffffff;align=center;verticalAlign=middle;fontStyle=0;fontSize=12;sketch=0;container=1;" vertex="1" parent="1">
                    <mxGeometry x="118.41666666666666" y="240" width="93.16666666666666" height="33" as="geometry"/>
                </mxCell>
                <mxCell id="24" value="" style="rounded=1;arcSize=9;align=left;spacingLeft=5;strokeColor=#B09500;html=1;strokeWidth=2;fontSize=12;fillColor=#e3c800;gradientDirection=north;fontColor=#000000;" vertex="1" parent="1">
                    <mxGeometry x="124.91666666666666" y="160" width="86.66666666666666" height="15" as="geometry"/>
                </mxCell>
            </root>
        </mxGraphModel>
    </diagram>
</mxfile>